<svg id="svg" version="1.1" xmlns="http://www.w3.org/2000/svg" xmlns:xlink="http://www.w3.org/1999/xlink" width="400" height="106.61719233147805" viewBox="0, 0, 400,106.61719233147805"><g id="svgg"><path id="path0" d="M344.125 15.111 C 343.323 15.149,342.667 15.243,342.667 15.320 C 342.667 15.397,341.954 15.514,341.083 15.579 C 340.212 15.644,339.500 15.758,339.500 15.833 C 339.500 15.907,339.050 16.019,338.500 16.083 C 337.950 16.147,337.500 16.257,337.500 16.328 C 337.500 16.399,337.125 16.507,336.667 16.568 C 336.208 16.628,335.833 16.741,335.833 16.818 C 335.833 16.894,335.458 17.007,335.000 17.068 C 334.542 17.128,334.167 17.242,334.167 17.321 C 334.167 17.399,333.885 17.514,333.542 17.577 C 333.198 17.640,332.766 17.788,332.581 17.907 C 332.396 18.026,332.002 18.176,331.706 18.241 C 331.409 18.307,331.167 18.423,331.167 18.500 C 331.167 18.577,330.942 18.690,330.667 18.750 C 330.392 18.810,330.167 18.929,330.167 19.013 C 330.167 19.098,329.989 19.167,329.772 19.167 C 329.556 19.167,329.188 19.317,328.955 19.500 C 328.721 19.683,328.449 19.833,328.349 19.833 C 328.249 19.833,328.167 19.902,328.167 19.987 C 328.167 20.071,327.942 20.190,327.667 20.250 C 327.392 20.310,327.167 20.429,327.167 20.513 C 327.167 20.598,327.089 20.667,326.993 20.667 C 326.796 20.667,325.779 21.352,325.694 21.542 C 325.664 21.610,325.530 21.667,325.398 21.667 C 325.265 21.667,325.116 21.772,325.066 21.902 C 325.016 22.031,324.794 22.182,324.571 22.238 C 324.349 22.294,324.167 22.413,324.167 22.503 C 324.167 22.593,324.052 22.667,323.911 22.667 C 323.771 22.667,323.613 22.779,323.560 22.917 C 323.508 23.054,323.366 23.167,323.245 23.167 C 323.124 23.167,322.801 23.392,322.526 23.667 C 322.251 23.942,321.964 24.169,321.888 24.172 C 321.812 24.175,321.491 24.437,321.175 24.755 C 320.858 25.073,320.535 25.333,320.456 25.333 C 320.265 25.333,317.000 28.629,317.000 28.823 C 317.000 28.906,316.677 29.298,316.282 29.695 C 315.887 30.092,315.514 30.548,315.454 30.708 C 315.393 30.869,315.271 31.000,315.183 31.000 C 315.095 31.000,314.974 31.154,314.914 31.342 C 314.854 31.530,314.605 31.901,314.361 32.166 C 313.723 32.859,313.500 33.139,313.500 33.250 C 313.500 33.363,312.802 34.377,312.638 34.502 C 312.577 34.548,312.475 34.792,312.412 35.043 C 312.349 35.295,312.236 35.500,312.160 35.500 C 312.085 35.500,311.849 35.856,311.637 36.292 C 311.424 36.727,311.200 37.122,311.138 37.168 C 311.077 37.215,310.975 37.459,310.912 37.710 C 310.849 37.961,310.730 38.167,310.649 38.167 C 310.567 38.167,310.500 38.263,310.500 38.381 C 310.500 38.500,310.354 38.882,310.176 39.231 C 309.998 39.580,309.805 40.084,309.746 40.350 C 309.688 40.616,309.581 40.833,309.508 40.833 C 309.435 40.833,309.328 41.133,309.269 41.500 C 309.211 41.867,309.093 42.167,309.008 42.167 C 308.923 42.167,308.803 42.504,308.741 42.917 C 308.679 43.329,308.565 43.667,308.487 43.667 C 308.409 43.667,308.295 44.042,308.234 44.500 C 308.173 44.958,308.066 45.333,307.995 45.333 C 307.924 45.333,307.814 45.783,307.750 46.333 C 307.686 46.883,307.573 47.333,307.498 47.333 C 307.423 47.333,307.308 47.915,307.242 48.625 C 307.177 49.335,307.039 49.970,306.936 50.036 C 306.653 50.216,306.674 62.697,306.958 62.792 C 307.073 62.830,307.167 63.069,307.167 63.324 C 307.167 64.991,307.872 66.128,308.267 65.098 C 308.317 64.969,308.546 64.816,308.776 64.758 C 309.007 64.700,309.283 64.580,309.389 64.490 C 310.199 63.810,310.411 63.667,310.609 63.667 C 310.732 63.667,310.833 63.592,310.833 63.500 C 310.833 63.408,310.948 63.333,311.089 63.333 C 311.229 63.333,311.384 63.228,311.434 63.098 C 311.484 62.969,311.706 62.818,311.929 62.762 C 312.151 62.706,312.333 62.593,312.333 62.510 C 312.333 62.427,312.552 62.312,312.819 62.253 C 313.087 62.194,313.347 62.038,313.398 61.906 C 313.448 61.775,313.604 61.667,313.745 61.667 C 313.885 61.667,314.000 61.600,314.000 61.518 C 314.000 61.436,314.188 61.322,314.417 61.265 C 314.646 61.207,314.833 61.087,314.833 60.997 C 314.833 60.907,314.948 60.833,315.089 60.833 C 315.229 60.833,315.384 60.728,315.434 60.598 C 315.484 60.469,315.704 60.318,315.923 60.263 C 316.284 60.173,317.135 59.668,318.368 58.813 C 318.617 58.641,318.898 58.500,318.993 58.500 C 319.089 58.500,319.167 58.433,319.167 58.351 C 319.167 58.270,319.354 58.156,319.583 58.098 C 319.813 58.041,320.000 57.920,320.000 57.830 C 320.000 57.740,320.115 57.667,320.255 57.667 C 320.396 57.667,320.554 57.554,320.606 57.417 C 320.659 57.279,320.807 57.167,320.934 57.167 C 321.112 57.167,321.167 56.874,321.167 55.917 C 321.167 55.229,321.230 54.667,321.308 54.667 C 321.386 54.667,321.497 53.945,321.555 53.062 C 321.613 52.180,321.727 51.374,321.807 51.271 C 321.888 51.168,322.002 50.716,322.061 50.267 C 322.119 49.818,322.235 49.368,322.318 49.267 C 322.401 49.166,322.522 48.727,322.587 48.292 C 322.651 47.856,322.768 47.500,322.845 47.500 C 322.922 47.500,323.034 47.237,323.094 46.917 C 323.155 46.596,323.270 46.333,323.352 46.333 C 323.433 46.333,323.500 46.246,323.500 46.140 C 323.500 45.953,324.664 43.502,324.833 43.333 C 324.943 43.223,325.334 42.540,325.642 41.917 C 325.778 41.642,325.989 41.357,326.111 41.283 C 326.233 41.210,326.333 41.069,326.333 40.969 C 326.333 40.870,326.521 40.614,326.750 40.402 C 326.979 40.190,327.167 39.945,327.167 39.858 C 327.167 39.771,327.541 39.336,327.997 38.891 C 328.454 38.447,328.829 38.027,328.831 37.958 C 328.834 37.790,329.466 37.167,329.634 37.167 C 329.707 37.167,330.150 36.792,330.619 36.333 C 331.087 35.875,331.524 35.500,331.591 35.500 C 331.657 35.500,331.886 35.313,332.098 35.083 C 332.310 34.854,332.551 34.667,332.633 34.667 C 332.764 34.667,332.994 34.501,333.777 33.843 C 333.884 33.754,334.160 33.633,334.390 33.575 C 334.621 33.517,334.850 33.364,334.899 33.235 C 334.949 33.106,335.104 33.000,335.245 33.000 C 335.385 33.000,335.500 32.931,335.500 32.847 C 335.500 32.762,335.725 32.644,336.000 32.583 C 336.275 32.523,336.500 32.408,336.500 32.328 C 336.500 32.247,336.781 32.131,337.125 32.069 C 337.469 32.008,337.938 31.859,338.167 31.738 C 338.707 31.455,340.596 30.833,340.917 30.833 C 341.054 30.833,341.167 30.764,341.167 30.680 C 341.167 30.596,341.673 30.473,342.292 30.408 C 342.910 30.342,343.470 30.205,343.536 30.103 C 343.704 29.839,352.465 29.841,352.631 30.105 C 352.696 30.209,353.219 30.347,353.792 30.413 C 354.365 30.479,354.833 30.600,354.833 30.683 C 354.833 30.766,354.965 30.832,355.125 30.831 C 355.486 30.828,357.719 31.534,357.833 31.687 C 357.879 31.748,358.254 31.889,358.667 32.000 C 359.079 32.111,359.470 32.287,359.536 32.392 C 359.734 32.711,361.163 32.631,361.353 32.292 C 361.443 32.131,361.597 32.000,361.695 32.000 C 361.920 32.000,363.898 30.814,363.972 30.634 C 364.003 30.560,364.136 30.500,364.269 30.500 C 364.402 30.500,364.552 30.392,364.602 30.260 C 364.653 30.128,364.913 29.972,365.181 29.914 C 365.448 29.855,365.667 29.739,365.667 29.657 C 365.667 29.574,365.849 29.461,366.071 29.405 C 366.294 29.349,366.516 29.198,366.566 29.068 C 366.616 28.939,366.771 28.833,366.911 28.833 C 367.052 28.833,367.167 28.758,367.167 28.667 C 367.167 28.575,367.274 28.500,367.405 28.500 C 367.536 28.500,367.742 28.405,367.863 28.290 C 367.984 28.174,368.271 27.987,368.500 27.874 C 369.031 27.613,369.507 27.307,369.797 27.042 C 369.922 26.927,370.131 26.833,370.262 26.833 C 370.393 26.833,370.500 26.758,370.500 26.667 C 370.500 26.575,370.615 26.500,370.755 26.500 C 370.896 26.500,371.051 26.394,371.101 26.265 C 371.150 26.136,371.373 25.984,371.595 25.929 C 371.818 25.873,372.000 25.753,372.000 25.663 C 372.000 25.574,372.107 25.500,372.238 25.500 C 372.369 25.500,372.588 25.388,372.726 25.251 C 372.863 25.114,373.168 24.928,373.404 24.838 C 374.074 24.583,373.768 23.333,373.035 23.333 C 372.965 23.333,372.787 23.202,372.639 23.042 C 372.230 22.596,371.622 22.167,371.401 22.167 C 371.292 22.167,371.159 22.054,371.106 21.917 C 371.054 21.779,370.896 21.667,370.755 21.667 C 370.615 21.667,370.500 21.597,370.500 21.511 C 370.500 21.426,370.331 21.303,370.125 21.239 C 369.919 21.174,369.712 21.076,369.667 21.019 C 369.531 20.853,368.950 20.502,368.458 20.291 C 368.206 20.182,368.000 20.041,368.000 19.977 C 368.000 19.912,367.775 19.810,367.500 19.750 C 367.225 19.690,367.000 19.577,367.000 19.500 C 367.000 19.423,366.775 19.310,366.500 19.250 C 366.225 19.190,366.000 19.071,366.000 18.987 C 366.000 18.902,365.914 18.833,365.810 18.833 C 365.705 18.833,365.274 18.675,364.852 18.482 C 364.429 18.289,363.858 18.029,363.583 17.906 C 363.308 17.782,362.802 17.631,362.458 17.572 C 362.115 17.512,361.833 17.405,361.833 17.334 C 361.833 17.263,361.496 17.154,361.083 17.092 C 360.671 17.030,360.333 16.915,360.333 16.835 C 360.333 16.756,359.921 16.639,359.417 16.576 C 358.912 16.513,358.500 16.404,358.500 16.333 C 358.500 16.263,358.069 16.151,357.542 16.086 C 357.015 16.020,356.545 15.904,356.498 15.828 C 356.450 15.752,355.738 15.637,354.914 15.571 C 354.091 15.506,353.374 15.387,353.323 15.308 C 353.219 15.149,346.424 15.004,344.125 15.111 " stroke="none" fill="#045cfc" fill-rule="evenodd"></path><path id="path1" d="M267.715 11.409 C 267.604 11.535,267.466 11.827,267.408 12.057 C 267.351 12.287,267.198 12.516,267.068 12.566 C 266.939 12.616,266.833 12.771,266.833 12.911 C 266.833 13.052,266.763 13.167,266.678 13.167 C 266.592 13.167,266.470 13.335,266.405 13.542 C 266.341 13.748,266.242 13.954,266.186 14.000 C 266.050 14.111,265.713 14.651,265.459 15.167 C 265.346 15.396,265.159 15.682,265.044 15.804 C 264.928 15.925,264.833 16.131,264.833 16.262 C 264.833 16.393,264.776 16.500,264.706 16.500 C 264.580 16.500,264.483 16.651,264.002 17.596 C 263.866 17.864,263.675 18.166,263.579 18.268 C 263.484 18.369,263.220 18.819,262.994 19.268 C 262.768 19.716,262.490 20.143,262.375 20.217 C 262.260 20.290,262.167 20.459,262.167 20.592 C 262.167 20.725,262.100 20.833,262.018 20.833 C 261.936 20.833,261.822 21.021,261.765 21.250 C 261.707 21.479,261.593 21.667,261.510 21.667 C 261.427 21.667,261.312 21.885,261.253 22.153 C 261.194 22.420,261.038 22.680,260.906 22.731 C 260.775 22.781,260.667 22.938,260.667 23.078 C 260.667 23.218,260.592 23.333,260.500 23.333 C 260.408 23.333,260.333 23.440,260.333 23.571 C 260.333 23.702,260.239 23.909,260.123 24.030 C 260.007 24.151,259.801 24.469,259.665 24.737 C 259.183 25.682,259.086 25.833,258.960 25.833 C 258.891 25.833,258.833 25.911,258.833 26.007 C 258.833 26.177,258.190 27.169,257.972 27.335 C 257.910 27.382,257.810 27.620,257.748 27.865 C 257.687 28.109,257.531 28.350,257.402 28.399 C 257.272 28.449,257.167 28.604,257.167 28.745 C 257.167 28.885,257.100 29.000,257.018 29.000 C 256.936 29.000,256.822 29.188,256.765 29.417 C 256.707 29.646,256.593 29.833,256.510 29.833 C 256.427 29.833,256.310 30.058,256.250 30.333 C 256.190 30.608,256.077 30.833,255.999 30.833 C 255.922 30.833,255.650 31.246,255.395 31.750 C 255.139 32.254,254.879 32.667,254.817 32.667 C 254.754 32.667,254.656 32.854,254.598 33.083 C 254.541 33.313,254.426 33.500,254.343 33.500 C 254.261 33.500,254.145 33.719,254.086 33.986 C 254.028 34.253,253.872 34.514,253.740 34.564 C 253.608 34.615,253.500 34.771,253.500 34.911 C 253.500 35.052,253.426 35.167,253.337 35.167 C 253.247 35.167,253.126 35.354,253.068 35.583 C 253.011 35.813,252.897 36.000,252.815 36.000 C 252.734 36.000,252.667 36.115,252.667 36.255 C 252.667 36.396,252.559 36.552,252.427 36.602 C 252.295 36.653,252.139 36.913,252.080 37.181 C 252.022 37.448,251.906 37.667,251.823 37.667 C 251.741 37.667,251.626 37.854,251.568 38.083 C 251.511 38.313,251.397 38.500,251.315 38.500 C 251.234 38.500,251.167 38.615,251.167 38.755 C 251.167 38.896,251.061 39.051,250.932 39.101 C 250.802 39.150,250.649 39.382,250.590 39.616 C 250.532 39.849,250.393 40.141,250.283 40.264 C 249.818 40.785,249.701 40.961,249.592 41.304 C 249.529 41.504,249.414 41.667,249.335 41.667 C 249.257 41.667,249.145 41.885,249.086 42.153 C 249.028 42.420,248.872 42.680,248.740 42.731 C 248.608 42.781,248.500 42.938,248.500 43.078 C 248.500 43.218,248.433 43.333,248.351 43.333 C 248.270 43.333,248.156 43.521,248.098 43.750 C 248.041 43.979,247.926 44.167,247.843 44.167 C 247.761 44.167,247.645 44.385,247.586 44.653 C 247.528 44.920,247.381 45.177,247.261 45.223 C 247.141 45.269,246.993 45.506,246.931 45.751 C 246.870 45.995,246.746 46.283,246.657 46.389 C 245.977 47.199,245.833 47.411,245.833 47.609 C 245.833 47.732,245.776 47.833,245.706 47.833 C 245.580 47.833,245.483 47.984,245.002 48.930 C 244.866 49.197,244.659 49.516,244.544 49.637 C 244.428 49.758,244.333 49.964,244.333 50.095 C 244.333 50.226,244.258 50.333,244.167 50.333 C 244.075 50.333,244.000 50.448,244.000 50.589 C 244.000 50.729,243.892 50.885,243.760 50.936 C 243.628 50.986,243.472 51.247,243.414 51.514 C 243.355 51.781,243.238 52.000,243.153 52.000 C 243.069 52.000,243.000 52.107,243.000 52.238 C 243.000 52.369,242.905 52.575,242.790 52.696 C 242.674 52.818,242.487 53.104,242.374 53.333 C 242.110 53.871,241.780 54.394,241.638 54.502 C 241.577 54.548,241.475 54.792,241.412 55.043 C 241.349 55.295,241.239 55.500,241.167 55.500 C 241.096 55.500,240.988 55.762,240.928 56.083 C 240.867 56.404,240.763 56.667,240.695 56.667 C 240.627 56.667,240.388 57.210,240.164 57.875 C 239.940 58.540,239.669 59.233,239.563 59.417 C 239.457 59.600,239.319 60.106,239.258 60.542 C 239.196 60.977,239.081 61.333,239.002 61.333 C 238.922 61.333,238.806 61.746,238.743 62.250 C 238.680 62.754,238.570 63.167,238.498 63.167 C 238.426 63.167,238.313 63.710,238.247 64.375 C 238.181 65.040,238.042 65.637,237.938 65.702 C 237.674 65.869,237.672 75.462,237.936 75.631 C 238.039 75.696,238.176 76.256,238.241 76.875 C 238.306 77.494,238.424 78.000,238.503 78.000 C 238.582 78.000,238.697 78.338,238.759 78.750 C 238.821 79.162,238.929 79.500,239.000 79.500 C 239.071 79.500,239.182 79.781,239.245 80.125 C 239.372 80.810,239.572 81.310,240.445 83.125 C 240.765 83.790,241.090 84.333,241.167 84.333 C 241.244 84.333,241.356 84.558,241.417 84.833 C 241.477 85.108,241.594 85.333,241.677 85.333 C 241.759 85.333,241.873 85.515,241.929 85.738 C 241.984 85.960,242.136 86.183,242.265 86.233 C 242.394 86.282,242.500 86.438,242.500 86.578 C 242.500 86.718,242.570 86.833,242.655 86.833 C 242.741 86.833,242.855 86.972,242.909 87.142 C 242.963 87.312,243.228 87.669,243.499 87.934 C 243.769 88.200,243.993 88.469,243.995 88.534 C 244.007 88.823,248.253 92.812,248.732 92.983 C 248.833 93.019,248.977 93.150,249.050 93.274 C 249.123 93.398,249.292 93.500,249.425 93.500 C 249.558 93.500,249.667 93.574,249.667 93.663 C 249.667 93.753,249.849 93.873,250.071 93.929 C 250.294 93.984,250.516 94.136,250.566 94.265 C 250.616 94.394,250.771 94.500,250.911 94.500 C 251.052 94.500,251.167 94.569,251.167 94.653 C 251.167 94.738,251.392 94.856,251.667 94.917 C 251.942 94.977,252.167 95.078,252.167 95.141 C 252.167 95.284,253.596 95.952,254.208 96.096 C 254.460 96.155,254.667 96.270,254.667 96.351 C 254.667 96.433,254.798 96.500,254.958 96.501 C 255.119 96.502,255.459 96.611,255.715 96.745 C 255.971 96.878,256.441 97.036,256.759 97.096 C 257.077 97.156,257.375 97.266,257.421 97.341 C 257.467 97.415,257.917 97.528,258.419 97.591 C 258.922 97.654,259.333 97.766,259.333 97.840 C 259.333 97.914,260.008 98.028,260.833 98.092 C 261.658 98.157,262.333 98.275,262.333 98.355 C 262.333 98.435,264.208 98.500,266.500 98.500 C 268.794 98.500,270.667 98.434,270.667 98.353 C 270.667 98.272,271.304 98.153,272.083 98.088 C 272.862 98.023,273.500 97.909,273.500 97.835 C 273.500 97.760,273.950 97.647,274.500 97.583 C 275.050 97.519,275.500 97.404,275.500 97.327 C 275.500 97.250,275.837 97.136,276.250 97.075 C 276.662 97.013,277.000 96.904,277.000 96.833 C 277.000 96.762,277.262 96.655,277.583 96.594 C 277.904 96.534,278.167 96.419,278.167 96.339 C 278.167 96.259,278.410 96.140,278.708 96.074 C 279.292 95.947,281.547 94.831,281.639 94.625 C 281.669 94.556,281.803 94.500,281.936 94.500 C 282.069 94.500,282.218 94.394,282.267 94.265 C 282.317 94.136,282.540 93.984,282.762 93.929 C 282.985 93.873,283.167 93.753,283.167 93.663 C 283.167 93.574,283.282 93.500,283.422 93.500 C 283.562 93.500,283.720 93.388,283.773 93.250 C 283.826 93.112,283.962 93.000,284.076 93.000 C 284.392 93.000,288.825 88.839,288.838 88.530 C 288.841 88.468,289.064 88.200,289.334 87.934 C 289.605 87.669,289.870 87.312,289.924 87.142 C 289.978 86.972,290.092 86.833,290.178 86.833 C 290.263 86.833,290.333 86.718,290.333 86.578 C 290.333 86.438,290.439 86.282,290.568 86.233 C 290.698 86.183,290.849 85.960,290.905 85.738 C 290.961 85.515,291.074 85.333,291.157 85.333 C 291.239 85.333,291.355 85.115,291.414 84.847 C 291.472 84.580,291.628 84.320,291.760 84.269 C 291.892 84.219,292.000 84.062,292.000 83.922 C 292.000 83.782,292.069 83.667,292.153 83.667 C 292.238 83.667,292.356 83.442,292.417 83.167 C 292.477 82.892,292.590 82.667,292.667 82.667 C 292.744 82.667,292.857 82.437,292.919 82.155 C 292.981 81.874,293.136 81.443,293.265 81.197 C 293.393 80.951,293.498 80.619,293.499 80.458 C 293.500 80.298,293.567 80.167,293.648 80.167 C 293.729 80.167,293.888 79.679,294.000 79.083 C 294.112 78.488,294.265 78.000,294.339 78.000 C 294.413 78.000,294.527 77.494,294.592 76.875 C 294.658 76.256,294.795 75.696,294.897 75.631 C 295.161 75.462,295.159 65.536,294.895 65.369 C 294.791 65.304,294.653 64.781,294.587 64.208 C 294.521 63.635,294.409 63.167,294.338 63.167 C 294.268 63.167,294.158 62.778,294.095 62.303 C 294.032 61.827,293.835 61.119,293.657 60.728 C 293.479 60.338,293.333 59.902,293.333 59.759 C 293.333 59.617,293.264 59.500,293.180 59.500 C 293.096 59.500,292.977 59.275,292.917 59.000 C 292.774 58.351,291.849 56.500,291.667 56.500 C 291.590 56.500,291.477 56.275,291.417 56.000 C 291.356 55.725,291.243 55.500,291.165 55.500 C 291.086 55.500,290.970 55.335,290.906 55.133 C 290.842 54.931,290.706 54.677,290.603 54.570 C 290.501 54.462,290.304 54.204,290.167 53.996 C 290.029 53.788,289.710 53.401,289.458 53.136 C 289.206 52.872,289.000 52.590,289.000 52.511 C 289.000 52.432,288.217 51.591,287.261 50.642 C 285.391 48.787,285.376 48.774,284.500 48.159 C 284.179 47.934,283.871 47.687,283.814 47.610 C 283.691 47.441,283.028 47.046,282.625 46.900 C 282.465 46.842,282.333 46.742,282.333 46.678 C 282.333 46.614,282.071 46.459,281.750 46.333 C 281.429 46.207,281.167 46.049,281.167 45.982 C 281.167 45.915,280.942 45.810,280.667 45.750 C 280.392 45.690,280.167 45.575,280.167 45.494 C 280.167 45.414,279.887 45.296,279.546 45.232 C 279.204 45.168,278.824 45.015,278.701 44.891 C 278.577 44.768,278.294 44.667,278.071 44.667 C 277.849 44.667,277.667 44.598,277.667 44.515 C 277.667 44.431,277.348 44.309,276.958 44.244 C 276.569 44.179,276.205 44.056,276.151 43.970 C 276.097 43.885,275.628 43.771,275.109 43.717 C 274.591 43.664,274.167 43.561,274.167 43.488 C 274.167 43.416,273.567 43.304,272.833 43.240 C 272.100 43.176,271.500 43.058,271.500 42.978 C 271.500 42.899,270.115 42.833,268.422 42.833 C 265.145 42.833,265.024 42.797,265.782 42.030 C 265.902 41.909,266.000 41.710,266.000 41.589 C 266.000 41.468,266.112 41.326,266.250 41.273 C 266.387 41.220,266.500 41.062,266.500 40.922 C 266.500 40.782,266.575 40.667,266.667 40.667 C 266.758 40.667,266.833 40.560,266.833 40.429 C 266.833 40.298,266.928 40.091,267.044 39.970 C 267.159 39.849,267.346 39.563,267.459 39.333 C 267.700 38.845,268.044 38.285,268.177 38.167 C 268.369 37.995,269.500 36.033,269.500 35.871 C 269.500 35.778,269.612 35.659,269.750 35.606 C 269.887 35.554,270.000 35.396,270.000 35.255 C 270.000 35.115,270.069 35.000,270.154 35.000 C 270.238 35.000,270.399 34.719,270.511 34.375 C 270.622 34.031,270.816 33.690,270.940 33.617 C 271.065 33.543,271.167 33.375,271.167 33.242 C 271.167 33.109,271.242 33.000,271.333 33.000 C 271.425 33.000,271.500 32.899,271.500 32.776 C 271.500 32.578,271.644 32.365,272.323 31.556 C 272.413 31.449,272.534 31.173,272.592 30.943 C 272.649 30.713,272.802 30.484,272.932 30.434 C 273.061 30.384,273.167 30.229,273.167 30.089 C 273.167 29.948,273.242 29.833,273.333 29.833 C 273.425 29.833,273.500 29.726,273.500 29.595 C 273.500 29.464,273.594 29.255,273.708 29.130 C 273.974 28.840,274.280 28.364,274.541 27.833 C 274.654 27.604,274.841 27.318,274.956 27.196 C 275.072 27.075,275.167 26.869,275.167 26.738 C 275.167 26.607,275.242 26.500,275.333 26.500 C 275.425 26.500,275.500 26.385,275.500 26.245 C 275.500 26.104,275.612 25.946,275.750 25.894 C 275.887 25.841,276.000 25.699,276.000 25.577 C 276.000 25.456,276.100 25.257,276.222 25.136 C 276.461 24.896,276.926 24.095,277.099 23.625 C 277.157 23.465,277.272 23.333,277.353 23.333 C 277.434 23.333,277.500 23.262,277.500 23.175 C 277.500 23.088,277.722 22.687,277.994 22.284 C 278.266 21.882,278.564 21.353,278.657 21.109 C 278.749 20.866,278.894 20.667,278.978 20.667 C 279.062 20.667,279.180 20.470,279.240 20.230 C 279.300 19.990,279.459 19.684,279.592 19.551 C 279.935 19.207,279.903 18.349,279.542 18.214 C 279.227 18.097,278.304 17.487,278.165 17.305 C 278.118 17.243,277.880 17.143,277.635 17.082 C 277.391 17.020,277.150 16.864,277.101 16.735 C 277.051 16.606,276.896 16.500,276.755 16.500 C 276.615 16.500,276.500 16.433,276.500 16.351 C 276.500 16.270,276.313 16.156,276.083 16.098 C 275.854 16.041,275.667 15.920,275.667 15.830 C 275.667 15.740,275.552 15.667,275.411 15.667 C 275.271 15.667,275.115 15.559,275.064 15.427 C 275.014 15.295,274.753 15.139,274.486 15.080 C 274.219 15.022,274.000 14.906,274.000 14.823 C 274.000 14.741,273.818 14.627,273.595 14.571 C 273.373 14.516,273.150 14.364,273.101 14.235 C 273.051 14.106,272.896 14.000,272.755 14.000 C 272.615 14.000,272.500 13.925,272.500 13.833 C 272.500 13.742,272.393 13.667,272.262 13.667 C 272.131 13.667,271.922 13.573,271.797 13.458 C 271.505 13.191,271.028 12.885,270.500 12.627 C 270.271 12.515,270.046 12.381,270.000 12.328 C 269.437 11.686,267.985 11.101,267.715 11.409 M195.333 13.812 C 195.333 13.892,194.735 14.009,194.003 14.073 C 193.271 14.137,192.633 14.254,192.584 14.333 C 192.535 14.412,192.083 14.528,191.581 14.591 C 191.078 14.654,190.667 14.763,190.667 14.834 C 190.667 14.904,190.329 15.013,189.917 15.075 C 189.504 15.136,189.167 15.257,189.167 15.342 C 189.167 15.427,188.867 15.544,188.500 15.603 C 188.133 15.661,187.833 15.769,187.833 15.841 C 187.833 15.914,187.608 16.023,187.333 16.083 C 187.058 16.144,186.833 16.256,186.833 16.333 C 186.833 16.410,186.608 16.523,186.333 16.583 C 186.058 16.644,185.833 16.762,185.833 16.847 C 185.833 16.931,185.726 17.000,185.595 17.000 C 185.464 17.000,185.256 17.101,185.133 17.224 C 185.009 17.348,184.639 17.577,184.310 17.733 C 183.981 17.889,183.555 18.163,183.363 18.342 C 183.171 18.520,182.933 18.667,182.835 18.667 C 182.737 18.667,182.613 18.779,182.560 18.917 C 182.508 19.054,182.366 19.167,182.245 19.167 C 182.125 19.167,181.689 19.504,181.276 19.917 C 180.864 20.329,180.475 20.667,180.412 20.667 C 180.256 20.667,178.500 22.432,178.500 22.588 C 178.500 22.656,178.330 22.870,178.122 23.064 C 177.915 23.258,177.562 23.679,177.339 24.000 C 177.116 24.321,176.836 24.643,176.717 24.717 C 176.598 24.790,176.500 24.942,176.500 25.055 C 176.500 25.167,176.350 25.388,176.167 25.545 C 175.983 25.702,175.833 25.935,175.833 26.064 C 175.833 26.192,175.721 26.341,175.583 26.394 C 175.446 26.446,175.333 26.604,175.333 26.745 C 175.333 26.885,175.266 27.000,175.185 27.000 C 175.103 27.000,174.989 27.188,174.932 27.417 C 174.874 27.646,174.759 27.833,174.677 27.833 C 174.594 27.833,174.477 28.058,174.417 28.333 C 174.356 28.608,174.246 28.833,174.171 28.833 C 174.097 28.833,173.985 29.039,173.922 29.290 C 173.858 29.541,173.730 29.794,173.635 29.853 C 173.316 30.050,173.251 31.500,173.562 31.500 C 173.711 31.500,173.833 31.565,173.833 31.645 C 173.833 31.725,174.171 31.885,174.583 32.000 C 174.996 32.115,175.333 32.269,175.333 32.342 C 175.333 32.414,175.558 32.523,175.833 32.583 C 176.108 32.644,176.333 32.754,176.333 32.828 C 176.333 32.902,176.596 33.012,176.917 33.072 C 177.237 33.133,177.500 33.247,177.500 33.328 C 177.500 33.408,177.725 33.523,178.000 33.583 C 178.275 33.644,178.500 33.756,178.500 33.833 C 178.500 33.910,178.725 34.023,179.000 34.083 C 179.275 34.144,179.500 34.256,179.500 34.333 C 179.500 34.410,179.725 34.523,180.000 34.583 C 180.275 34.644,180.500 34.754,180.500 34.828 C 180.500 34.902,180.762 35.012,181.083 35.072 C 181.404 35.133,181.667 35.247,181.667 35.328 C 181.667 35.408,181.892 35.523,182.167 35.583 C 182.442 35.644,182.667 35.756,182.667 35.833 C 182.667 35.910,182.892 36.023,183.167 36.083 C 183.442 36.144,183.667 36.254,183.667 36.329 C 183.667 36.403,183.872 36.515,184.123 36.578 C 184.374 36.642,184.618 36.753,184.665 36.826 C 184.853 37.118,185.833 37.206,185.833 36.930 C 185.833 36.785,185.900 36.667,185.981 36.667 C 186.063 36.667,186.179 36.404,186.239 36.083 C 186.299 35.762,186.420 35.500,186.508 35.500 C 186.595 35.500,186.667 35.393,186.667 35.262 C 186.667 35.131,186.769 34.921,186.895 34.796 C 187.020 34.670,187.179 34.391,187.248 34.175 C 187.316 33.958,187.551 33.616,187.769 33.413 C 187.988 33.211,188.167 32.987,188.167 32.916 C 188.167 32.556,191.758 29.333,192.160 29.333 C 192.255 29.333,192.333 29.258,192.333 29.167 C 192.333 29.075,192.448 29.000,192.589 29.000 C 192.729 29.000,192.884 28.896,192.932 28.770 C 192.981 28.643,193.316 28.492,193.677 28.434 C 194.038 28.377,194.333 28.262,194.333 28.179 C 194.333 28.097,194.652 27.976,195.042 27.911 C 195.431 27.846,195.794 27.723,195.849 27.637 C 195.903 27.552,196.634 27.437,197.474 27.383 C 198.313 27.328,199.000 27.220,199.000 27.142 C 199.000 27.064,199.225 27.000,199.500 27.000 C 199.775 27.000,200.000 27.064,200.000 27.142 C 200.000 27.220,200.689 27.332,201.532 27.392 C 202.375 27.452,203.106 27.565,203.157 27.643 C 203.208 27.721,203.531 27.837,203.875 27.900 C 204.219 27.963,204.500 28.078,204.500 28.156 C 204.500 28.233,204.762 28.345,205.083 28.406 C 205.404 28.466,205.667 28.579,205.667 28.656 C 205.667 28.734,205.854 28.844,206.083 28.902 C 206.313 28.959,206.500 29.080,206.500 29.170 C 206.500 29.260,206.582 29.333,206.682 29.333 C 207.089 29.333,209.467 31.738,209.725 32.411 C 209.779 32.552,209.894 32.667,209.982 32.667 C 210.069 32.667,210.190 32.892,210.250 33.167 C 210.310 33.442,210.419 33.667,210.492 33.667 C 210.565 33.667,210.675 33.983,210.737 34.370 C 210.798 34.757,210.922 35.118,211.011 35.173 C 211.100 35.228,211.220 35.887,211.278 36.637 C 211.335 37.386,211.447 38.000,211.525 38.000 C 211.603 38.000,211.667 38.225,211.667 38.500 C 211.667 38.775,211.602 39.000,211.524 39.000 C 211.445 39.000,211.329 39.692,211.265 40.537 C 211.201 41.383,211.087 42.114,211.012 42.162 C 210.937 42.211,210.822 42.494,210.758 42.792 C 210.693 43.090,210.577 43.333,210.500 43.333 C 210.423 43.333,210.310 43.558,210.250 43.833 C 210.190 44.108,210.076 44.333,209.998 44.333 C 209.920 44.333,209.805 44.493,209.743 44.688 C 209.548 45.304,207.150 47.500,206.673 47.500 C 206.578 47.500,206.500 47.569,206.500 47.653 C 206.500 47.738,206.275 47.856,206.000 47.917 C 205.725 47.977,205.500 48.087,205.500 48.161 C 205.500 48.235,205.162 48.346,204.750 48.408 C 204.338 48.470,204.000 48.585,204.000 48.665 C 204.000 48.744,203.569 48.862,203.042 48.927 C 202.515 48.992,202.032 49.125,201.969 49.223 C 201.895 49.338,200.280 49.425,197.344 49.471 L 192.833 49.541 192.833 56.187 L 192.833 62.833 197.167 62.833 C 199.550 62.833,201.500 62.899,201.500 62.979 C 201.500 63.058,202.175 63.176,203.000 63.241 C 203.825 63.306,204.500 63.423,204.500 63.502 C 204.500 63.581,204.838 63.697,205.250 63.759 C 205.662 63.821,206.000 63.929,206.000 64.000 C 206.000 64.071,206.262 64.179,206.583 64.239 C 206.904 64.299,207.167 64.414,207.167 64.494 C 207.167 64.575,207.392 64.690,207.667 64.750 C 207.942 64.810,208.167 64.921,208.167 64.995 C 208.167 65.070,208.348 65.176,208.569 65.231 C 208.790 65.287,209.174 65.501,209.422 65.708 C 210.577 66.669,211.333 67.389,211.333 67.529 C 211.333 67.614,211.516 67.852,211.738 68.058 C 211.961 68.265,212.194 68.636,212.257 68.883 C 212.319 69.131,212.433 69.333,212.511 69.333 C 212.588 69.333,212.701 69.596,212.761 69.917 C 212.821 70.237,212.933 70.500,213.010 70.500 C 213.087 70.500,213.201 70.950,213.263 71.500 C 213.325 72.050,213.442 72.500,213.522 72.500 C 213.601 72.500,213.667 73.212,213.667 74.083 C 213.667 74.954,213.600 75.667,213.519 75.667 C 213.438 75.667,213.320 76.079,213.257 76.583 C 213.194 77.088,213.081 77.500,213.007 77.500 C 212.932 77.500,212.821 77.762,212.761 78.083 C 212.701 78.404,212.581 78.667,212.496 78.667 C 212.410 78.667,212.293 78.854,212.235 79.083 C 212.178 79.312,212.064 79.500,211.982 79.500 C 211.900 79.500,211.833 79.586,211.833 79.691 C 211.833 79.875,209.589 82.167,209.409 82.167 C 209.301 82.167,208.285 82.871,208.165 83.028 C 208.118 83.090,207.874 83.192,207.623 83.255 C 207.372 83.318,207.167 83.428,207.167 83.500 C 207.167 83.571,206.904 83.679,206.583 83.739 C 206.262 83.799,206.000 83.910,206.000 83.986 C 206.000 84.062,205.608 84.176,205.128 84.239 C 204.649 84.303,204.210 84.430,204.154 84.521 C 204.097 84.612,203.215 84.731,202.192 84.785 C 201.170 84.839,200.333 84.947,200.333 85.025 C 200.333 85.103,200.033 85.167,199.667 85.167 C 199.300 85.167,199.000 85.103,199.000 85.025 C 199.000 84.947,198.200 84.838,197.223 84.783 C 196.246 84.728,195.402 84.613,195.348 84.528 C 195.294 84.443,194.856 84.320,194.375 84.255 C 193.894 84.189,193.500 84.071,193.500 83.992 C 193.500 83.913,193.237 83.799,192.917 83.739 C 192.596 83.679,192.333 83.569,192.333 83.495 C 192.333 83.421,192.108 83.310,191.833 83.250 C 191.558 83.190,191.333 83.071,191.333 82.987 C 191.333 82.902,191.255 82.833,191.159 82.833 C 190.934 82.833,188.934 81.513,188.861 81.316 C 188.831 81.234,188.729 81.167,188.636 81.167 C 188.449 81.167,186.167 78.937,186.167 78.754 C 186.167 78.692,185.942 78.416,185.667 78.141 C 185.392 77.866,185.167 77.542,185.167 77.422 C 185.167 77.301,185.054 77.159,184.917 77.106 C 184.779 77.054,184.667 76.902,184.667 76.769 C 184.667 76.636,184.610 76.503,184.542 76.472 C 184.473 76.442,184.192 75.967,183.917 75.417 C 183.642 74.867,183.371 74.379,183.316 74.333 C 183.260 74.287,183.163 73.969,183.100 73.625 C 183.037 73.281,182.913 73.000,182.826 73.000 C 182.738 73.000,182.667 72.887,182.667 72.750 C 182.667 72.611,182.519 72.500,182.333 72.500 C 182.150 72.500,182.000 72.574,182.000 72.663 C 182.000 72.753,181.813 72.874,181.583 72.932 C 181.354 72.989,181.167 73.097,181.167 73.171 C 181.167 73.246,180.948 73.355,180.681 73.414 C 180.413 73.472,180.153 73.628,180.102 73.760 C 180.052 73.892,179.896 74.000,179.755 74.000 C 179.615 74.000,179.500 74.069,179.500 74.153 C 179.500 74.238,179.275 74.356,179.000 74.417 C 178.725 74.477,178.500 74.588,178.500 74.664 C 178.500 74.739,178.294 74.885,178.042 74.987 C 177.559 75.184,176.641 75.690,176.500 75.837 C 176.454 75.884,176.229 76.015,176.000 76.127 C 175.488 76.377,174.945 76.715,174.833 76.853 C 174.787 76.909,174.581 77.008,174.375 77.072 C 174.169 77.136,174.000 77.253,174.000 77.331 C 174.000 77.410,173.775 77.523,173.500 77.583 C 173.225 77.644,173.000 77.762,173.000 77.847 C 173.000 77.931,172.885 78.000,172.745 78.000 C 172.604 78.000,172.449 78.106,172.399 78.235 C 172.350 78.364,172.121 78.517,171.890 78.575 C 171.074 78.780,170.780 79.228,170.906 80.073 C 170.969 80.491,171.085 80.833,171.164 80.833 C 171.242 80.833,171.356 81.058,171.417 81.333 C 171.477 81.608,171.590 81.833,171.667 81.833 C 171.744 81.833,171.856 82.058,171.917 82.333 C 171.977 82.608,172.090 82.833,172.167 82.833 C 172.244 82.833,172.356 83.058,172.417 83.333 C 172.477 83.608,172.587 83.833,172.662 83.833 C 172.736 83.833,172.844 84.021,172.902 84.250 C 172.959 84.479,173.080 84.667,173.170 84.667 C 173.260 84.667,173.333 84.782,173.333 84.922 C 173.333 85.062,173.439 85.218,173.568 85.267 C 173.698 85.317,173.849 85.540,173.905 85.762 C 173.961 85.985,174.080 86.167,174.170 86.167 C 174.260 86.167,174.333 86.275,174.333 86.408 C 174.333 86.541,174.434 86.710,174.556 86.783 C 174.679 86.857,174.850 87.046,174.936 87.204 C 175.266 87.812,178.521 91.333,178.753 91.333 C 178.825 91.333,179.138 91.596,179.450 91.917 C 179.761 92.237,180.091 92.500,180.183 92.500 C 180.274 92.500,180.523 92.688,180.735 92.917 C 180.948 93.146,181.172 93.333,181.234 93.333 C 181.353 93.333,182.357 94.010,182.500 94.186 C 182.546 94.242,182.771 94.346,183.000 94.417 C 183.229 94.487,183.454 94.591,183.500 94.647 C 183.744 94.948,185.665 95.910,186.378 96.088 C 186.628 96.151,186.833 96.261,186.833 96.332 C 186.833 96.404,187.171 96.513,187.583 96.575 C 187.996 96.636,188.333 96.749,188.333 96.825 C 188.333 96.900,188.671 97.013,189.083 97.075 C 189.496 97.136,189.833 97.250,189.833 97.327 C 189.833 97.404,190.283 97.519,190.833 97.583 C 191.383 97.647,191.833 97.760,191.833 97.834 C 191.833 97.908,192.546 98.022,193.417 98.088 C 194.287 98.153,195.000 98.272,195.000 98.353 C 195.000 98.434,197.051 98.500,199.583 98.500 C 202.104 98.500,204.167 98.436,204.167 98.357 C 204.167 98.279,204.858 98.162,205.704 98.098 C 206.549 98.035,207.281 97.919,207.329 97.841 C 207.377 97.764,207.848 97.647,208.375 97.581 C 208.902 97.515,209.333 97.404,209.333 97.333 C 209.333 97.263,209.746 97.154,210.250 97.091 C 210.754 97.028,211.167 96.915,211.167 96.840 C 211.167 96.765,211.429 96.655,211.750 96.594 C 212.071 96.534,212.333 96.423,212.333 96.348 C 212.333 96.272,212.597 96.167,212.920 96.115 C 213.614 96.002,216.000 94.886,216.000 94.674 C 216.000 94.593,216.225 94.477,216.500 94.417 C 216.775 94.356,217.000 94.239,217.000 94.157 C 217.000 94.074,217.182 93.961,217.405 93.905 C 217.627 93.849,217.850 93.698,217.899 93.568 C 217.949 93.439,218.104 93.333,218.245 93.333 C 218.385 93.333,218.500 93.263,218.500 93.178 C 218.500 93.092,218.639 92.978,218.809 92.924 C 218.979 92.870,219.335 92.605,219.601 92.334 C 219.866 92.064,220.147 91.841,220.226 91.838 C 220.498 91.829,223.667 88.427,223.667 88.143 C 223.667 88.056,223.849 87.815,224.072 87.609 C 224.295 87.402,224.526 87.036,224.587 86.795 C 224.647 86.554,224.802 86.317,224.932 86.267 C 225.061 86.218,225.167 86.062,225.167 85.922 C 225.167 85.782,225.236 85.667,225.320 85.667 C 225.404 85.667,225.523 85.442,225.583 85.167 C 225.644 84.892,225.756 84.667,225.833 84.667 C 225.910 84.667,226.023 84.442,226.083 84.167 C 226.144 83.892,226.253 83.667,226.325 83.667 C 226.398 83.667,226.505 83.367,226.564 83.000 C 226.623 82.633,226.742 82.333,226.830 82.333 C 226.917 82.333,227.038 81.958,227.099 81.500 C 227.160 81.042,227.268 80.667,227.338 80.667 C 227.409 80.667,227.520 80.198,227.586 79.625 C 227.651 79.052,227.789 78.478,227.894 78.349 C 228.154 78.028,228.161 70.038,227.900 69.869 C 227.800 69.804,227.666 69.305,227.604 68.761 C 227.541 68.217,227.424 67.692,227.344 67.594 C 227.264 67.497,227.145 67.060,227.080 66.625 C 227.015 66.190,226.904 65.833,226.833 65.833 C 226.762 65.833,226.655 65.571,226.594 65.250 C 226.534 64.929,226.419 64.667,226.339 64.667 C 226.259 64.667,226.144 64.442,226.083 64.167 C 226.023 63.892,225.910 63.667,225.833 63.667 C 225.756 63.667,225.644 63.442,225.583 63.167 C 225.523 62.892,225.406 62.667,225.323 62.667 C 225.241 62.667,225.127 62.485,225.071 62.262 C 225.016 62.040,224.864 61.817,224.735 61.767 C 224.606 61.718,224.500 61.590,224.500 61.483 C 224.500 61.376,224.313 61.114,224.083 60.902 C 223.854 60.690,223.667 60.454,223.667 60.377 C 223.667 60.188,221.946 58.502,221.745 58.493 C 221.656 58.489,221.399 58.264,221.174 57.993 C 220.950 57.722,220.668 57.500,220.549 57.500 C 220.431 57.500,220.333 57.426,220.333 57.337 C 220.333 57.247,220.146 57.126,219.917 57.068 C 219.688 57.011,219.500 56.897,219.500 56.815 C 219.500 56.734,219.418 56.667,219.318 56.667 C 219.218 56.667,218.945 56.517,218.712 56.333 C 218.479 56.150,218.111 56.000,217.894 56.000 C 217.677 56.000,217.500 55.934,217.500 55.853 C 217.500 55.772,217.350 55.666,217.167 55.618 C 216.756 55.511,216.732 55.193,217.125 55.049 C 217.285 54.990,217.582 54.767,217.784 54.554 C 217.986 54.341,218.227 54.167,218.321 54.167 C 218.532 54.167,221.833 50.931,221.833 50.724 C 221.833 50.642,221.983 50.446,222.167 50.289 C 222.350 50.132,222.500 49.898,222.500 49.769 C 222.500 49.641,222.612 49.492,222.750 49.440 C 222.887 49.387,223.000 49.229,223.000 49.089 C 223.000 48.948,223.072 48.833,223.160 48.833 C 223.248 48.833,223.410 48.533,223.520 48.167 C 223.630 47.800,223.777 47.500,223.846 47.500 C 223.916 47.500,224.023 47.275,224.083 47.000 C 224.144 46.725,224.248 46.500,224.315 46.500 C 224.474 46.500,224.967 45.373,225.102 44.699 C 225.160 44.406,225.268 44.167,225.341 44.167 C 225.414 44.167,225.527 43.660,225.592 43.042 C 225.658 42.423,225.795 41.863,225.897 41.798 C 226.149 41.637,226.135 34.188,225.883 34.028 C 225.786 33.967,225.653 33.373,225.586 32.708 C 225.520 32.044,225.401 31.500,225.322 31.500 C 225.243 31.500,225.128 31.125,225.068 30.667 C 225.007 30.208,224.901 29.833,224.833 29.833 C 224.765 29.833,224.661 29.533,224.603 29.167 C 224.544 28.800,224.430 28.500,224.350 28.500 C 224.270 28.500,224.155 28.238,224.094 27.917 C 224.034 27.596,223.913 27.333,223.826 27.333 C 223.738 27.333,223.667 27.241,223.667 27.127 C 223.667 26.840,222.806 25.167,222.657 25.167 C 222.591 25.167,222.489 24.979,222.432 24.750 C 222.374 24.521,222.253 24.333,222.163 24.333 C 222.074 24.333,222.000 24.225,222.000 24.092 C 222.000 23.959,221.904 23.790,221.788 23.717 C 221.671 23.643,221.448 23.382,221.291 23.137 C 220.870 22.473,217.481 19.167,217.223 19.167 C 217.100 19.167,217.000 19.089,217.000 18.995 C 217.000 18.900,216.872 18.774,216.716 18.714 C 216.559 18.654,216.295 18.487,216.128 18.344 C 215.730 18.003,214.702 17.378,214.125 17.126 C 213.873 17.017,213.667 16.874,213.667 16.810 C 213.667 16.746,213.442 16.644,213.167 16.583 C 212.892 16.523,212.667 16.405,212.667 16.322 C 212.667 16.239,212.367 16.123,212.000 16.064 C 211.633 16.005,211.333 15.895,211.333 15.820 C 211.333 15.744,211.071 15.633,210.750 15.572 C 210.429 15.512,210.167 15.405,210.167 15.334 C 210.167 15.263,209.829 15.154,209.417 15.092 C 209.004 15.030,208.667 14.918,208.667 14.842 C 208.667 14.767,208.235 14.651,207.708 14.586 C 207.181 14.520,206.709 14.400,206.659 14.320 C 206.609 14.240,205.915 14.124,205.117 14.062 C 204.319 14.001,203.667 13.887,203.667 13.809 C 203.667 13.731,201.792 13.667,199.500 13.667 C 197.208 13.667,195.333 13.732,195.333 13.812 M10.833 56.083 L 10.833 97.167 18.083 97.167 L 25.333 97.167 25.333 56.083 L 25.333 15.000 18.083 15.000 L 10.833 15.000 10.833 56.083 M36.667 21.917 L 36.667 28.833 47.917 28.833 L 59.167 28.833 59.167 63.000 L 59.167 97.167 66.500 97.167 L 73.833 97.167 73.833 63.000 L 73.833 28.833 85.083 28.833 L 96.333 28.833 96.333 21.917 L 96.333 15.000 66.500 15.000 L 36.667 15.000 36.667 21.917 M106.167 56.083 L 106.167 97.188 123.423 97.135 C 136.023 97.097,140.711 97.032,140.798 96.895 C 140.863 96.791,141.535 96.652,142.292 96.586 C 143.048 96.520,143.667 96.413,143.667 96.348 C 143.667 96.284,144.228 96.137,144.913 96.022 C 145.599 95.907,146.198 95.751,146.245 95.675 C 146.291 95.600,146.593 95.488,146.915 95.428 C 147.237 95.368,147.500 95.256,147.500 95.180 C 147.500 95.105,147.800 94.995,148.167 94.936 C 148.533 94.877,148.833 94.764,148.833 94.683 C 148.833 94.603,149.096 94.488,149.417 94.428 C 149.737 94.367,150.000 94.253,150.000 94.172 C 150.000 94.092,150.225 93.977,150.500 93.917 C 150.775 93.856,151.000 93.751,151.000 93.683 C 151.000 93.615,151.337 93.391,151.750 93.185 C 152.162 92.979,152.500 92.740,152.500 92.655 C 152.500 92.570,152.615 92.500,152.755 92.500 C 152.896 92.500,153.051 92.394,153.101 92.265 C 153.150 92.136,153.373 91.984,153.595 91.929 C 153.818 91.873,154.000 91.753,154.000 91.663 C 154.000 91.574,154.086 91.500,154.191 91.500 C 154.297 91.500,154.638 91.237,154.950 90.917 C 155.261 90.596,155.587 90.333,155.673 90.333 C 155.948 90.333,158.950 87.081,159.096 86.625 C 159.147 86.465,159.259 86.333,159.345 86.333 C 159.430 86.333,159.500 86.265,159.500 86.181 C 159.500 86.098,159.759 85.636,160.076 85.155 C 160.393 84.674,160.699 84.067,160.756 83.807 C 160.813 83.546,160.923 83.333,161.000 83.333 C 161.077 83.333,161.190 83.108,161.250 82.833 C 161.310 82.558,161.421 82.333,161.495 82.333 C 161.569 82.333,161.679 82.071,161.739 81.750 C 161.799 81.429,161.915 81.167,161.997 81.167 C 162.079 81.167,162.197 80.829,162.259 80.417 C 162.321 80.004,162.430 79.667,162.503 79.667 C 162.575 79.667,162.688 79.198,162.754 78.625 C 162.820 78.052,162.958 77.530,163.062 77.464 C 163.327 77.297,163.326 68.478,163.060 68.151 C 162.956 68.022,162.817 67.448,162.752 66.875 C 162.687 66.302,162.571 65.833,162.494 65.833 C 162.417 65.833,162.303 65.496,162.241 65.083 C 162.179 64.671,162.068 64.333,161.994 64.333 C 161.920 64.333,161.810 64.108,161.750 63.833 C 161.690 63.558,161.579 63.333,161.505 63.333 C 161.431 63.333,161.321 63.071,161.261 62.750 C 161.201 62.429,161.085 62.167,161.004 62.167 C 160.922 62.167,160.804 62.002,160.740 61.801 C 160.606 61.380,159.516 59.777,159.307 59.694 C 159.230 59.664,159.167 59.562,159.167 59.467 C 159.167 59.263,156.085 56.167,155.881 56.167 C 155.804 56.167,155.612 56.017,155.455 55.833 C 155.298 55.650,155.057 55.500,154.918 55.500 C 154.780 55.500,154.667 55.425,154.667 55.333 C 154.667 55.242,154.552 55.167,154.411 55.167 C 154.271 55.167,154.115 55.059,154.064 54.927 C 154.014 54.795,153.753 54.639,153.486 54.580 C 153.219 54.522,153.000 54.413,153.000 54.338 C 153.000 54.264,152.800 54.153,152.555 54.091 C 151.628 53.858,151.438 53.590,151.948 53.233 C 152.646 52.745,155.667 49.727,155.667 49.519 C 155.667 49.417,155.740 49.333,155.830 49.333 C 155.920 49.333,156.039 49.151,156.095 48.929 C 156.151 48.706,156.302 48.484,156.432 48.434 C 156.561 48.384,156.667 48.229,156.667 48.089 C 156.667 47.948,156.736 47.833,156.820 47.833 C 156.904 47.833,157.023 47.608,157.083 47.333 C 157.144 47.058,157.256 46.833,157.333 46.833 C 157.410 46.833,157.523 46.608,157.583 46.333 C 157.644 46.058,157.756 45.833,157.833 45.833 C 157.910 45.833,158.026 45.590,158.089 45.292 C 158.153 44.994,158.264 44.675,158.337 44.583 C 158.409 44.492,158.524 44.042,158.591 43.583 C 158.658 43.125,158.796 42.696,158.898 42.631 C 159.156 42.465,159.158 33.703,158.900 33.536 C 158.800 33.470,158.669 32.937,158.609 32.350 C 158.549 31.764,158.428 31.198,158.341 31.092 C 158.253 30.987,158.131 30.585,158.069 30.200 C 158.008 29.815,157.900 29.500,157.831 29.500 C 157.761 29.500,157.655 29.238,157.594 28.917 C 157.534 28.596,157.423 28.333,157.347 28.333 C 157.271 28.333,157.161 28.033,157.103 27.667 C 157.044 27.300,156.938 27.000,156.868 27.000 C 156.797 27.000,156.645 26.794,156.530 26.542 C 156.143 25.697,155.922 25.333,155.794 25.333 C 155.724 25.333,155.667 25.218,155.667 25.078 C 155.667 24.938,155.557 24.781,155.423 24.729 C 155.289 24.678,155.129 24.477,155.067 24.283 C 155.006 24.090,154.741 23.742,154.478 23.512 C 154.215 23.281,154.000 23.030,154.000 22.954 C 154.000 22.770,152.420 21.169,152.231 21.160 C 152.150 21.156,151.899 20.931,151.674 20.660 C 151.450 20.388,151.203 20.167,151.126 20.167 C 151.048 20.167,150.782 19.978,150.534 19.748 C 150.286 19.518,149.937 19.283,149.758 19.226 C 149.579 19.169,149.330 19.020,149.204 18.895 C 149.079 18.769,148.869 18.667,148.738 18.667 C 148.607 18.667,148.500 18.592,148.500 18.500 C 148.500 18.408,148.406 18.331,148.292 18.328 C 148.177 18.325,147.708 18.138,147.250 17.913 C 146.792 17.688,146.323 17.502,146.208 17.502 C 146.094 17.501,146.000 17.432,146.000 17.348 C 146.000 17.264,145.700 17.145,145.333 17.083 C 144.967 17.021,144.667 16.911,144.667 16.838 C 144.667 16.764,144.329 16.654,143.917 16.592 C 143.504 16.530,143.167 16.417,143.167 16.339 C 143.167 16.262,142.717 16.147,142.167 16.083 C 141.617 16.019,141.167 15.906,141.167 15.832 C 141.167 15.757,140.510 15.643,139.708 15.577 C 138.906 15.511,138.197 15.373,138.131 15.270 C 138.045 15.135,133.611 15.069,122.089 15.030 L 106.167 14.978 106.167 56.083 M136.131 29.102 C 136.197 29.204,136.605 29.339,137.038 29.403 C 137.471 29.467,137.864 29.581,137.911 29.657 C 137.958 29.733,138.260 29.845,138.581 29.905 C 138.903 29.966,139.167 30.081,139.167 30.161 C 139.167 30.241,139.392 30.356,139.667 30.417 C 139.942 30.477,140.167 30.596,140.167 30.680 C 140.167 30.764,140.268 30.833,140.391 30.833 C 140.514 30.833,140.751 30.983,140.917 31.167 C 141.083 31.350,141.278 31.500,141.351 31.500 C 141.526 31.500,142.333 32.253,142.333 32.417 C 142.333 32.487,142.518 32.716,142.743 32.925 C 142.969 33.134,143.202 33.499,143.261 33.736 C 143.321 33.973,143.433 34.167,143.511 34.167 C 143.588 34.167,143.703 34.448,143.766 34.792 C 143.830 35.135,143.964 35.470,144.066 35.536 C 144.325 35.703,144.321 41.634,144.062 41.798 C 143.959 41.863,143.821 42.235,143.756 42.625 C 143.691 43.015,143.577 43.333,143.503 43.333 C 143.430 43.333,143.322 43.521,143.265 43.750 C 143.207 43.979,143.087 44.167,142.997 44.167 C 142.907 44.167,142.833 44.252,142.833 44.356 C 142.833 45.014,139.275 47.495,138.325 47.499 C 138.183 47.500,137.990 47.577,137.897 47.670 C 137.803 47.764,137.225 47.887,136.613 47.944 C 136.001 48.001,135.500 48.112,135.500 48.191 C 135.500 48.269,132.162 48.333,128.083 48.333 L 120.667 48.333 120.667 38.569 L 120.667 28.805 128.339 28.861 C 133.728 28.900,136.048 28.972,136.131 29.102 M270.306 56.783 C 270.367 56.879,270.679 57.015,271.000 57.084 C 271.321 57.153,271.731 57.312,271.912 57.438 C 272.093 57.564,272.412 57.667,272.620 57.667 C 272.829 57.667,273.000 57.724,273.000 57.794 C 273.000 57.920,273.147 58.014,274.096 58.499 C 274.364 58.635,274.770 58.917,274.998 59.124 C 275.227 59.331,275.463 59.500,275.523 59.500 C 275.723 59.500,277.667 61.438,277.667 61.637 C 277.667 61.745,277.740 61.833,277.830 61.833 C 277.920 61.833,278.041 62.021,278.098 62.250 C 278.156 62.479,278.264 62.667,278.339 62.667 C 278.486 62.667,279.333 64.363,279.333 64.656 C 279.333 64.754,279.408 64.833,279.500 64.833 C 279.592 64.833,279.667 65.002,279.668 65.208 C 279.668 65.415,279.777 65.791,279.910 66.046 C 280.042 66.300,280.202 66.956,280.264 67.504 C 280.326 68.052,280.442 68.500,280.522 68.500 C 280.601 68.500,280.667 69.475,280.667 70.667 C 280.667 71.858,280.602 72.833,280.523 72.833 C 280.444 72.833,280.339 73.286,280.288 73.840 C 280.238 74.393,280.122 74.937,280.030 75.048 C 279.938 75.159,279.811 75.531,279.746 75.875 C 279.682 76.219,279.563 76.500,279.481 76.500 C 279.400 76.500,279.333 76.595,279.333 76.711 C 279.333 76.827,279.194 77.183,279.023 77.502 C 278.853 77.822,278.657 78.264,278.587 78.484 C 278.518 78.705,278.282 79.051,278.064 79.253 C 277.845 79.456,277.667 79.681,277.667 79.753 C 277.667 79.960,275.776 81.750,275.194 82.094 C 274.904 82.265,274.667 82.464,274.667 82.536 C 274.667 82.608,274.552 82.667,274.411 82.667 C 274.271 82.667,274.115 82.775,274.064 82.906 C 274.014 83.038,273.753 83.194,273.486 83.253 C 273.219 83.312,273.000 83.423,273.000 83.500 C 273.000 83.577,272.756 83.692,272.458 83.756 C 272.160 83.820,271.842 83.930,271.750 84.000 C 271.658 84.070,271.321 84.184,271.000 84.252 C 270.679 84.320,270.371 84.446,270.316 84.533 C 270.261 84.620,269.492 84.734,268.608 84.786 C 267.724 84.839,267.000 84.946,267.000 85.024 C 267.000 85.103,266.737 85.167,266.417 85.167 C 266.096 85.167,265.833 85.103,265.833 85.025 C 265.833 84.947,265.147 84.835,264.309 84.775 C 263.470 84.716,262.702 84.600,262.601 84.519 C 262.499 84.438,262.154 84.317,261.833 84.250 C 261.512 84.183,261.175 84.072,261.083 84.004 C 260.992 83.935,260.692 83.826,260.418 83.760 C 260.144 83.694,259.882 83.590,259.835 83.528 C 259.726 83.385,259.200 83.055,258.667 82.794 C 258.438 82.682,258.212 82.547,258.167 82.495 C 258.121 82.443,257.821 82.221,257.500 82.002 C 256.755 81.492,255.433 80.171,255.288 79.792 C 255.227 79.631,255.107 79.500,255.022 79.500 C 254.936 79.500,254.788 79.275,254.692 79.000 C 254.596 78.725,254.444 78.500,254.355 78.500 C 254.266 78.500,254.144 78.275,254.083 78.000 C 254.023 77.725,253.910 77.500,253.833 77.500 C 253.756 77.500,253.644 77.275,253.583 77.000 C 253.523 76.725,253.414 76.500,253.341 76.500 C 253.269 76.500,253.159 76.183,253.097 75.797 C 253.035 75.410,252.915 75.050,252.830 74.998 C 252.745 74.945,252.625 74.362,252.564 73.701 C 252.502 73.041,252.388 72.500,252.309 72.500 C 252.231 72.500,252.167 71.675,252.167 70.667 C 252.167 69.658,252.231 68.833,252.309 68.833 C 252.388 68.833,252.502 68.293,252.564 67.632 C 252.625 66.971,252.745 66.388,252.830 66.335 C 252.915 66.283,253.035 65.924,253.097 65.537 C 253.159 65.150,253.269 64.833,253.341 64.833 C 253.414 64.833,253.523 64.608,253.583 64.333 C 253.644 64.058,253.756 63.833,253.833 63.833 C 253.910 63.833,254.023 63.608,254.083 63.333 C 254.144 63.058,254.266 62.833,254.355 62.833 C 254.444 62.833,254.596 62.608,254.692 62.333 C 254.788 62.058,254.936 61.833,255.022 61.833 C 255.107 61.833,255.226 61.702,255.286 61.542 C 255.412 61.204,256.934 59.667,257.142 59.667 C 257.219 59.667,257.417 59.517,257.583 59.333 C 257.749 59.150,257.986 59.000,258.109 59.000 C 258.232 59.000,258.333 58.938,258.333 58.863 C 258.333 58.708,260.674 57.500,260.974 57.500 C 261.080 57.500,261.167 57.433,261.167 57.352 C 261.167 57.270,261.448 57.151,261.792 57.087 C 262.135 57.023,262.492 56.908,262.584 56.832 C 263.004 56.485,270.088 56.440,270.306 56.783 M139.131 62.438 C 139.197 62.542,139.719 62.680,140.292 62.746 C 140.865 62.812,141.333 62.924,141.333 62.995 C 141.333 63.066,141.633 63.172,142.000 63.231 C 142.367 63.289,142.667 63.405,142.667 63.489 C 142.667 63.572,142.892 63.690,143.167 63.750 C 143.442 63.810,143.667 63.929,143.667 64.013 C 143.667 64.098,143.782 64.167,143.922 64.167 C 144.062 64.167,144.220 64.279,144.273 64.417 C 144.326 64.554,144.474 64.667,144.603 64.667 C 144.731 64.667,144.965 64.817,145.122 65.000 C 145.279 65.183,145.466 65.333,145.537 65.333 C 145.711 65.333,146.333 65.964,146.333 66.141 C 146.333 66.218,146.483 66.417,146.667 66.583 C 146.850 66.749,147.000 66.978,147.000 67.091 C 147.000 67.205,147.112 67.341,147.250 67.394 C 147.387 67.446,147.500 67.604,147.500 67.745 C 147.500 67.885,147.565 68.000,147.645 68.000 C 147.725 68.000,147.841 68.317,147.903 68.703 C 147.965 69.090,148.106 69.462,148.216 69.531 C 148.501 69.707,148.501 75.793,148.216 75.969 C 148.106 76.038,147.965 76.410,147.903 76.797 C 147.841 77.183,147.725 77.500,147.645 77.500 C 147.565 77.500,147.500 77.578,147.500 77.673 C 147.500 77.893,146.818 78.873,146.542 79.050 C 146.427 79.123,146.332 79.273,146.330 79.383 C 146.328 79.493,146.061 79.808,145.736 80.083 C 145.412 80.358,145.022 80.715,144.870 80.875 C 144.717 81.035,144.497 81.167,144.380 81.167 C 144.262 81.167,144.167 81.242,144.167 81.333 C 144.167 81.425,144.073 81.501,143.958 81.502 C 143.844 81.502,143.375 81.688,142.917 81.913 C 142.458 82.138,141.957 82.325,141.802 82.328 C 141.646 82.331,141.479 82.398,141.430 82.478 C 141.381 82.558,140.947 82.675,140.466 82.739 C 139.985 82.803,139.485 82.944,139.354 83.052 C 139.178 83.198,136.690 83.264,129.891 83.304 L 120.667 83.358 120.667 72.750 L 120.667 62.142 129.839 62.196 C 136.423 62.235,139.046 62.303,139.131 62.438 " stroke="none" fill="#444444" fill-rule="evenodd"></path><path id="path2" d="M379.733 31.068 C 379.683 31.198,379.460 31.349,379.238 31.405 C 379.015 31.461,378.833 31.574,378.833 31.657 C 378.833 31.739,378.603 31.857,378.322 31.919 C 378.041 31.981,377.770 32.137,377.721 32.266 C 377.671 32.395,377.544 32.500,377.437 32.500 C 377.330 32.500,376.844 32.762,376.357 33.083 C 375.869 33.404,375.402 33.667,375.319 33.667 C 375.235 33.667,375.167 33.734,375.167 33.815 C 375.167 33.897,374.979 34.011,374.750 34.068 C 374.521 34.126,374.333 34.247,374.333 34.337 C 374.333 34.426,374.218 34.500,374.078 34.500 C 373.938 34.500,373.781 34.608,373.731 34.740 C 373.680 34.872,373.426 35.026,373.167 35.083 C 372.907 35.140,372.653 35.295,372.602 35.427 C 372.552 35.559,372.396 35.667,372.255 35.667 C 372.115 35.667,372.000 35.734,372.000 35.815 C 372.000 35.897,371.813 36.011,371.583 36.068 C 371.354 36.126,371.167 36.247,371.167 36.337 C 371.167 36.426,371.052 36.500,370.911 36.500 C 370.771 36.500,370.615 36.608,370.564 36.740 C 370.514 36.872,370.253 37.028,369.986 37.086 C 369.719 37.145,369.500 37.261,369.500 37.343 C 369.500 37.426,369.313 37.541,369.083 37.598 C 368.854 37.656,368.667 37.765,368.667 37.840 C 368.667 37.916,368.517 38.025,368.333 38.083 C 367.839 38.240,367.921 38.855,368.500 39.333 C 368.775 39.560,369.000 39.824,369.000 39.919 C 369.000 40.015,369.150 40.221,369.333 40.378 C 369.517 40.535,369.667 40.769,369.667 40.897 C 369.667 41.026,369.779 41.174,369.917 41.227 C 370.054 41.280,370.167 41.438,370.167 41.578 C 370.167 41.718,370.240 41.833,370.330 41.833 C 370.420 41.833,370.539 42.015,370.595 42.238 C 370.651 42.460,370.802 42.683,370.932 42.733 C 371.061 42.782,371.167 42.938,371.167 43.078 C 371.167 43.218,371.236 43.333,371.320 43.333 C 371.404 43.333,371.523 43.558,371.583 43.833 C 371.644 44.108,371.756 44.333,371.833 44.333 C 371.910 44.333,372.023 44.558,372.083 44.833 C 372.144 45.108,372.254 45.333,372.329 45.333 C 372.403 45.333,372.515 45.537,372.577 45.786 C 372.640 46.035,372.836 46.556,373.012 46.943 C 373.189 47.331,373.333 47.802,373.333 47.991 C 373.333 48.179,373.399 48.333,373.479 48.333 C 373.558 48.333,373.673 48.708,373.734 49.167 C 373.795 49.625,373.907 50.000,373.982 50.000 C 374.057 50.000,374.166 50.445,374.223 50.989 C 374.357 52.274,374.385 52.394,374.583 52.536 C 374.826 52.709,374.808 60.475,374.564 60.631 C 374.462 60.696,374.324 61.200,374.256 61.750 C 374.189 62.300,374.075 62.825,374.003 62.917 C 373.930 63.008,373.817 63.408,373.752 63.805 C 373.686 64.202,373.528 64.727,373.401 64.972 C 373.273 65.217,373.168 65.581,373.168 65.782 C 373.167 65.983,373.092 66.193,373.000 66.250 C 372.908 66.307,372.749 66.686,372.647 67.093 C 372.544 67.500,372.400 67.833,372.327 67.833 C 372.253 67.833,372.144 68.058,372.083 68.333 C 372.023 68.608,371.910 68.833,371.833 68.833 C 371.756 68.833,371.645 69.052,371.586 69.319 C 371.528 69.587,371.372 69.847,371.240 69.898 C 371.108 69.948,371.000 70.104,371.000 70.245 C 371.000 70.385,370.925 70.500,370.833 70.500 C 370.742 70.500,370.667 70.613,370.667 70.752 C 370.667 70.890,370.517 71.132,370.333 71.289 C 370.150 71.446,370.000 71.670,370.000 71.787 C 370.000 71.904,369.930 72.000,369.845 72.000 C 369.759 72.000,369.637 72.166,369.572 72.368 C 369.508 72.570,369.241 72.924,368.978 73.155 C 368.715 73.386,368.500 73.640,368.500 73.720 C 368.500 73.972,364.568 77.667,364.300 77.667 C 364.218 77.667,363.986 77.841,363.784 78.054 C 363.582 78.267,363.285 78.490,363.125 78.549 C 362.965 78.608,362.833 78.725,362.833 78.810 C 362.833 78.895,362.646 79.011,362.417 79.068 C 362.188 79.126,362.000 79.241,362.000 79.323 C 362.000 79.406,361.774 79.523,361.499 79.584 C 361.223 79.644,361.038 79.760,361.089 79.842 C 361.139 79.924,360.990 80.038,360.757 80.097 C 360.524 80.155,360.333 80.264,360.333 80.338 C 360.333 80.413,360.108 80.523,359.833 80.583 C 359.558 80.644,359.333 80.753,359.333 80.825 C 359.333 80.898,359.033 81.005,358.667 81.064 C 358.300 81.123,358.000 81.233,358.000 81.309 C 358.000 81.385,357.587 81.546,357.083 81.667 C 356.579 81.788,356.167 81.940,356.167 82.005 C 356.167 82.070,355.775 82.176,355.296 82.239 C 354.817 82.303,354.343 82.423,354.242 82.507 C 354.141 82.590,353.520 82.709,352.863 82.770 C 352.205 82.831,351.667 82.945,351.667 83.024 C 351.667 83.102,351.190 83.167,350.607 83.167 C 350.024 83.167,349.199 83.214,348.773 83.273 L 348.000 83.379 348.000 90.689 L 348.000 98.000 349.917 98.000 C 350.971 98.000,351.833 97.936,351.833 97.858 C 351.833 97.781,352.674 97.666,353.702 97.603 C 354.729 97.541,355.610 97.425,355.660 97.346 C 355.709 97.266,356.256 97.147,356.875 97.081 C 357.494 97.015,358.000 96.904,358.000 96.833 C 358.000 96.763,358.412 96.654,358.917 96.591 C 359.421 96.528,359.833 96.406,359.833 96.321 C 359.833 96.236,360.012 96.167,360.231 96.167 C 360.674 96.167,362.910 95.448,363.623 95.075 C 363.876 94.943,364.215 94.835,364.375 94.834 C 364.535 94.834,364.667 94.764,364.667 94.680 C 364.667 94.596,364.892 94.477,365.167 94.417 C 365.442 94.356,365.667 94.244,365.667 94.167 C 365.667 94.090,365.892 93.977,366.167 93.917 C 366.442 93.856,366.667 93.744,366.667 93.667 C 366.667 93.590,366.892 93.477,367.167 93.417 C 367.442 93.356,367.667 93.244,367.667 93.167 C 367.667 93.090,367.892 92.977,368.167 92.917 C 368.442 92.856,368.667 92.746,368.667 92.671 C 368.667 92.597,368.854 92.489,369.083 92.432 C 369.313 92.374,369.500 92.253,369.500 92.163 C 369.500 92.074,369.615 92.000,369.755 92.000 C 369.896 92.000,370.052 91.892,370.102 91.760 C 370.153 91.628,370.413 91.472,370.681 91.414 C 370.948 91.355,371.167 91.257,371.168 91.195 C 371.168 91.134,371.450 90.896,371.793 90.667 C 372.625 90.111,372.807 89.969,373.132 89.625 C 373.284 89.465,373.465 89.333,373.535 89.333 C 373.658 89.333,374.127 88.981,374.590 88.542 C 374.711 88.427,374.855 88.333,374.910 88.333 C 375.051 88.333,379.833 83.566,379.833 83.425 C 379.833 83.361,379.927 83.211,380.042 83.090 C 380.512 82.595,380.833 82.154,380.833 82.004 C 380.833 81.917,380.983 81.765,381.167 81.667 C 381.350 81.569,381.500 81.378,381.500 81.244 C 381.500 81.110,381.556 80.999,381.625 80.999 C 381.694 80.998,381.937 80.717,382.165 80.374 C 382.394 80.031,382.619 79.712,382.665 79.667 C 382.797 79.537,383.148 78.960,383.374 78.500 C 383.487 78.271,383.674 77.984,383.790 77.863 C 383.905 77.742,384.000 77.536,384.000 77.405 C 384.000 77.274,384.069 77.167,384.153 77.167 C 384.238 77.167,384.355 76.948,384.414 76.681 C 384.472 76.413,384.628 76.153,384.760 76.102 C 384.892 76.052,385.000 75.896,385.000 75.755 C 385.000 75.615,385.069 75.500,385.153 75.500 C 385.238 75.500,385.356 75.275,385.417 75.000 C 385.477 74.725,385.596 74.500,385.680 74.500 C 385.764 74.500,385.833 74.368,385.833 74.206 C 385.833 74.044,385.983 73.632,386.167 73.290 C 386.350 72.948,386.500 72.518,386.500 72.334 C 386.500 72.150,386.572 72.000,386.659 72.000 C 386.747 72.000,386.868 71.737,386.928 71.415 C 386.988 71.093,387.098 70.793,387.171 70.747 C 387.244 70.702,387.355 70.365,387.417 69.999 C 387.479 69.633,387.588 69.333,387.659 69.333 C 387.730 69.333,387.889 68.771,388.011 68.083 C 388.133 67.396,388.287 66.833,388.353 66.833 C 388.419 66.833,388.526 66.346,388.589 65.750 C 388.653 65.154,388.766 64.667,388.839 64.667 C 388.913 64.667,389.026 63.917,389.091 63.000 C 389.156 62.083,389.275 61.333,389.355 61.333 C 389.435 61.333,389.500 59.196,389.500 56.583 C 389.500 53.971,389.436 51.833,389.358 51.833 C 389.280 51.833,389.165 51.105,389.102 50.215 C 389.039 49.324,388.925 48.555,388.848 48.506 C 388.770 48.457,388.653 47.948,388.587 47.375 C 388.521 46.802,388.407 46.333,388.333 46.333 C 388.260 46.333,388.148 45.892,388.086 45.352 C 388.023 44.813,387.866 44.166,387.736 43.916 C 387.606 43.666,387.500 43.339,387.499 43.189 C 387.498 43.039,387.401 42.729,387.283 42.500 C 387.164 42.271,386.887 41.596,386.667 41.000 C 386.446 40.404,386.169 39.729,386.051 39.500 C 385.932 39.271,385.835 38.990,385.834 38.875 C 385.834 38.760,385.764 38.667,385.680 38.667 C 385.596 38.667,385.477 38.442,385.417 38.167 C 385.356 37.892,385.244 37.667,385.167 37.667 C 385.090 37.667,384.977 37.442,384.917 37.167 C 384.856 36.892,384.738 36.667,384.653 36.667 C 384.569 36.667,384.500 36.552,384.500 36.411 C 384.500 36.271,384.392 36.115,384.260 36.064 C 384.128 36.014,383.972 35.753,383.914 35.486 C 383.855 35.219,383.747 35.000,383.673 35.000 C 383.599 35.000,383.491 34.869,383.432 34.708 C 383.224 34.141,382.813 33.500,382.658 33.500 C 382.571 33.500,382.500 33.403,382.500 33.284 C 382.500 33.047,382.083 32.448,381.625 32.027 C 381.465 31.880,381.333 31.702,381.333 31.632 C 381.333 31.030,379.936 30.538,379.733 31.068 M322.106 66.583 C 322.054 66.721,321.896 66.833,321.755 66.833 C 321.615 66.833,321.500 66.901,321.500 66.984 C 321.500 67.066,321.294 67.213,321.042 67.309 C 320.467 67.528,319.601 68.043,319.528 68.208 C 319.497 68.277,319.400 68.333,319.313 68.333 C 319.175 68.333,318.240 68.927,318.000 69.167 C 317.835 69.332,316.911 69.856,316.625 69.946 C 316.465 69.997,316.333 70.097,316.333 70.168 C 316.333 70.239,316.146 70.344,315.917 70.402 C 315.688 70.459,315.500 70.580,315.500 70.670 C 315.500 70.760,315.391 70.833,315.258 70.833 C 315.125 70.833,314.957 70.927,314.883 71.042 C 314.810 71.156,314.375 71.438,313.917 71.667 C 313.458 71.896,313.023 72.177,312.950 72.292 C 312.877 72.406,312.708 72.500,312.575 72.500 C 312.442 72.500,312.333 72.567,312.333 72.649 C 312.333 72.730,312.146 72.844,311.917 72.902 C 311.688 72.959,311.500 73.080,311.500 73.170 C 311.500 73.260,311.393 73.333,311.262 73.333 C 310.894 73.333,310.500 73.813,310.500 74.262 C 310.500 74.485,310.569 74.667,310.653 74.667 C 310.738 74.667,310.856 74.892,310.917 75.167 C 310.977 75.442,311.090 75.667,311.167 75.667 C 311.244 75.667,311.356 75.892,311.417 76.167 C 311.477 76.442,311.596 76.667,311.680 76.667 C 311.764 76.667,311.833 76.774,311.833 76.905 C 311.833 77.036,311.927 77.245,312.042 77.370 C 312.237 77.582,312.352 77.767,312.875 78.708 C 312.990 78.915,313.121 79.121,313.167 79.167 C 313.350 79.350,314.000 80.326,314.000 80.418 C 314.000 80.472,314.174 80.681,314.387 80.883 C 314.600 81.085,314.823 81.381,314.882 81.542 C 314.941 81.702,315.062 81.833,315.150 81.833 C 315.239 81.833,315.361 81.991,315.422 82.183 C 315.483 82.375,315.825 82.816,316.183 83.163 C 316.541 83.510,316.833 83.852,316.833 83.922 C 316.833 83.992,317.077 84.295,317.375 84.595 C 317.673 84.895,318.515 85.746,319.246 86.487 C 319.978 87.227,320.632 87.833,320.702 87.833 C 320.771 87.833,321.098 88.096,321.428 88.417 C 321.758 88.737,322.101 89.000,322.189 89.000 C 322.277 89.000,322.523 89.188,322.735 89.417 C 322.948 89.646,323.190 89.833,323.274 89.833 C 323.357 89.833,323.554 89.983,323.711 90.167 C 323.868 90.350,324.102 90.500,324.231 90.500 C 324.359 90.500,324.508 90.612,324.560 90.750 C 324.613 90.888,324.765 91.000,324.898 91.000 C 325.030 91.000,325.164 91.056,325.194 91.125 C 325.279 91.315,326.296 92.000,326.493 92.000 C 326.589 92.000,326.667 92.069,326.667 92.153 C 326.667 92.238,326.892 92.356,327.167 92.417 C 327.442 92.477,327.667 92.588,327.667 92.664 C 327.667 92.857,330.964 94.500,331.350 94.500 C 331.524 94.500,331.667 94.569,331.667 94.653 C 331.667 94.738,331.910 94.860,332.208 94.924 C 332.506 94.989,332.787 95.095,332.833 95.161 C 332.948 95.324,335.610 96.167,336.010 96.167 C 336.188 96.167,336.333 96.234,336.333 96.317 C 336.333 96.400,336.783 96.519,337.333 96.583 C 337.883 96.647,338.333 96.767,338.333 96.850 C 338.333 96.932,338.484 97.000,338.668 97.000 C 339.000 97.000,339.003 96.916,338.960 89.292 L 338.917 81.583 338.458 81.531 C 338.206 81.502,338.000 81.414,338.000 81.336 C 338.000 81.257,337.775 81.144,337.500 81.083 C 337.225 81.023,337.000 80.910,337.000 80.833 C 337.000 80.756,336.775 80.644,336.500 80.583 C 336.225 80.523,336.000 80.410,336.000 80.333 C 336.000 80.256,335.775 80.144,335.500 80.083 C 335.225 80.023,335.000 79.910,335.000 79.833 C 335.000 79.756,334.781 79.645,334.514 79.586 C 334.247 79.528,333.986 79.372,333.936 79.240 C 333.885 79.108,333.763 79.000,333.665 79.000 C 333.566 79.000,333.395 78.926,333.285 78.835 C 333.174 78.743,332.746 78.406,332.333 78.084 C 331.921 77.763,331.382 77.312,331.136 77.083 C 330.889 76.854,330.640 76.667,330.581 76.667 C 330.523 76.667,329.940 76.142,329.287 75.500 C 328.634 74.858,328.039 74.333,327.966 74.333 C 327.893 74.333,327.833 74.236,327.833 74.117 C 327.833 73.998,327.573 73.642,327.255 73.325 C 326.937 73.009,326.675 72.656,326.672 72.542 C 326.669 72.427,326.593 72.333,326.503 72.333 C 326.413 72.333,326.293 72.146,326.235 71.917 C 326.178 71.688,326.062 71.500,325.978 71.500 C 325.894 71.500,325.751 71.331,325.661 71.125 C 325.570 70.919,325.307 70.450,325.074 70.083 C 324.842 69.717,324.609 69.285,324.557 69.125 C 324.504 68.965,324.401 68.833,324.327 68.833 C 324.253 68.833,324.144 68.608,324.083 68.333 C 324.023 68.058,323.914 67.833,323.841 67.833 C 323.768 67.833,323.662 67.604,323.606 67.324 C 323.430 66.442,322.363 65.916,322.106 66.583 " stroke="none" fill="#ef961c" fill-rule="evenodd"></path></g></svg>